<?xml version="1.0" encoding="iso-8859-1"?>
<!-- Generator: Adobe Illustrator 19.0.0, SVG Export Plug-In . SVG Version: 6.00 Build 0)  -->
<svg version="1.1" id="Layer_1" xmlns="http://www.w3.org/2000/svg" xmlns:xlink="http://www.w3.org/1999/xlink" x="0px" y="0px"
	 viewBox="0 0 508 508" style="enable-background:new 0 0 508 508;" xml:space="preserve">
<g>
	<g>
		<path d="M378.756,0h-249.58C57.948,0,0,57.964,0,129.216v249.572C0,450.036,57.948,508,129.176,508h249.58
			C450.02,508,508,450.036,508,378.792V129.216C508,57.964,450.02,0,378.756,0z M500,378.792
			c0,66.836-54.392,121.212-121.244,121.212h-249.58C62.36,500.004,8,445.628,8,378.792V129.216C8,62.376,62.36,8,129.176,8h249.58
			C445.612,8,500,62.376,500,129.216V378.792z"/>
	</g>
</g>
<g>
	<g>
		<path d="M480.192,253.968c-2.208,0-4,1.792-4,4v112.024c0,57.568-48.632,106.2-106.2,106.2H138.004
			c-57.564,0-106.196-48.632-106.196-106.2V138.008c0-57.568,48.632-106.2,106.196-106.2H369.08c2.208,0,4-1.792,4-4s-1.792-4-4-4
			H138.004c-61.9,0-114.196,52.296-114.196,114.2v231.984c0,61.904,52.296,114.2,114.196,114.2h231.988
			c61.904,0,114.2-52.296,114.2-114.2V257.968C484.192,255.76,482.4,253.968,480.192,253.968z"/>
	</g>
</g>
<g>
	<g>
		<path d="M449.808,58.188c-21.852-21.848-51.28-34.38-80.732-34.38c-2.208,0-4,1.792-4,4s1.792,4,4,4
			c27.348,0,54.712,11.676,75.076,32.036c0.78,0.78,1.804,1.172,2.828,1.172s2.048-0.392,2.828-1.172
			C451.372,62.28,451.372,59.748,449.808,58.188z"/>
	</g>
</g>
<g>
	<g>
		<path d="M480.192,166.668c-2.208,0-4,1.792-4,4v59.524c0,2.208,1.792,4,4,4s4-1.792,4-4v-59.524
			C484.192,168.46,482.4,166.668,480.192,166.668z"/>
	</g>
</g>
<g>
	<g>
		<path d="M301.768,219.656c-11.112-15.372-28.976-24.548-47.776-24.548c-18.788,0-36.644,9.176-47.764,24.552
			c-7.292,10.12-11.148,22-11.148,34.348c0,32.48,26.428,58.9,58.912,58.9c32.496,0,58.928-26.424,58.928-58.896
			C312.92,241.688,309.068,229.812,301.768,219.656z M253.992,304.908c-28.072,0-50.912-22.832-50.912-50.9
			c0-10.66,3.332-20.92,9.636-29.668c9.612-13.3,25.044-21.236,41.276-21.236c16.244,0,31.676,7.94,41.284,21.228
			c6.312,8.776,9.644,19.036,9.644,29.676C304.92,282.076,282.076,304.908,253.992,304.908z"/>
	</g>
</g>
<g>
	<g>
		<path d="M380.984,218.252h-47.976c-1.388,0-2.68,0.72-3.408,1.904c-0.728,1.188-0.788,2.664-0.16,3.904
			c3.56,7.04,5.86,18.844,5.86,30.08c0,44.792-36.476,81.232-81.308,81.232c-44.828,0-81.3-36.428-81.3-81.2
			c0-11.288,2.296-23.108,5.852-30.108c0.628-1.24,0.572-2.72-0.156-3.904c-0.732-1.184-2.02-1.908-3.412-1.908h-47.96
			c-2.208,0-4,1.792-4,4v127.456c0,18.792,16.484,35.276,35.28,35.276h191.392c18.804,0,35.296-16.484,35.296-35.28V222.252
			C384.984,220.044,383.192,218.252,380.984,218.252z M376.984,349.704c0,14.276-13.008,27.276-27.296,27.276H158.296
			c-14.276,0-27.28-13-27.28-27.276V226.256h37.972c-2.7,7.836-4.296,17.964-4.296,27.916c0,49.184,40.06,89.2,89.3,89.2
			c49.244,0,89.308-40.028,89.308-89.232c0-9.916-1.6-20.032-4.308-27.888h37.992V349.704z"/>
	</g>
</g>
<g>
	<g>
		<path d="M375.868,131.116c-0.756-0.752-1.72-0.992-2.844-1.164l-52.244,0.18c-2.2,0.008-3.984,1.792-3.988,3.992l-0.12,52.868
			c-0.004,1.068,0.42,2.088,1.172,2.84c0.752,0.748,1.768,1.168,2.828,1.168c0.004,0,0.008,0,0.012,0l52.376-0.188
			c2.208-0.008,3.988-1.796,3.988-4v-52.86C377.048,132.888,376.624,131.868,375.868,131.116z M369.044,182.828l-44.364,0.16
			l0.104-44.868l44.26-0.144V182.828z"/>
	</g>
</g>
<g>
	<g>
		<path d="M408.764,250c-2.208,0-4,1.792-4,4v95.708c0,30.872-24.192,55.056-55.076,55.056H158.296
			c-30.876,0-55.06-24.184-55.06-55.056V158.3c0-30.88,24.188-55.064,55.06-55.064h191.392c31.224,0,55.684,24.452,55.684,55.672
			c0,2.208,1.792,4,4,4s4-1.792,4-4c0-35.704-27.972-63.672-63.684-63.672H158.296c-35.36,0-63.06,27.704-63.06,63.064v191.404
			c0,35.36,27.7,63.056,63.06,63.056h191.392c35.368,0,63.072-27.692,63.076-63.052V254C412.764,251.792,410.972,250,408.764,250z"
			/>
	</g>
</g>
<g>
</g>
<g>
</g>
<g>
</g>
<g>
</g>
<g>
</g>
<g>
</g>
<g>
</g>
<g>
</g>
<g>
</g>
<g>
</g>
<g>
</g>
<g>
</g>
<g>
</g>
<g>
</g>
<g>
</g>
</svg>
