<?xml version="1.0" encoding="iso-8859-1"?>
<!-- Generator: Adobe Illustrator 19.0.0, SVG Export Plug-In . SVG Version: 6.00 Build 0)  -->
<svg version="1.1" id="Layer_1" xmlns="http://www.w3.org/2000/svg" xmlns:xlink="http://www.w3.org/1999/xlink" x="0px" y="0px"
	 viewBox="0 0 508 508" style="enable-background:new 0 0 508 508;" xml:space="preserve">
<g>
	<g>
		<path d="M378.764,0H129.18C57.952,0,0,57.964,0,129.208v249.576C0,450.036,57.952,508,129.18,508h249.584
			C450.024,508,508,450.036,508,378.784V129.208C508,57.964,450.024,0,378.764,0z M500,378.784C500,445.624,445.612,500,378.764,500
			H129.18C62.36,500,8,445.624,8,378.784V129.208C8,62.376,62.36,8,129.18,8h249.584C445.616,8,500,62.376,500,129.208V378.784z"/>
	</g>
</g>
<g>
	<g>
		<path d="M480.192,253.968c-2.208,0-4,1.792-4,4v112.016c0,57.572-48.632,106.208-106.2,106.208H138.004
			c-57.564,0-106.196-48.636-106.196-106.208V138c0-57.56,48.632-106.192,106.196-106.192H369.08c2.208,0,4-1.792,4-4s-1.792-4-4-4
			H138.004C76.104,23.808,23.808,76.1,23.808,138v231.984c0,61.908,52.296,114.208,114.196,114.208h231.988
			c61.904,0,114.2-52.3,114.2-114.208V257.968C484.192,255.76,482.4,253.968,480.192,253.968z"/>
	</g>
</g>
<g>
	<g>
		<path d="M449.808,58.184c-20.884-20.884-53.936-34.376-84.2-34.376c-2.208,0-4,1.792-4,4s1.792,4,4,4
			c28.252,0,59.084,12.572,78.544,32.032c0.78,0.78,1.804,1.172,2.828,1.172s2.048-0.392,2.828-1.172
			C451.372,62.276,451.372,59.748,449.808,58.184z"/>
	</g>
</g>
<g>
	<g>
		<path d="M480.192,166.668c-2.208,0-4,1.792-4,4v59.524c0,2.208,1.792,4,4,4s4-1.792,4-4v-59.524
			C484.192,168.46,482.4,166.668,480.192,166.668z"/>
	</g>
</g>
<g>
	<g>
		<g>
			<path d="M158.76,226.188c-2.208,0-4,1.792-4,4v95.24c0,2.212,1.792,4,4,4c2.212,0,4-1.788,4-4v-95.24
				C162.76,227.98,160.968,226.188,158.76,226.188z"/>
			<path d="M134.952,246.028c-2.208,0-4,1.792-4,4v75.4c0,2.212,1.792,4,4,4c2.212,0,4-1.788,4-4v-75.4
				C138.952,247.82,137.16,246.028,134.952,246.028z"/>
			<path d="M146.856,246.028c-2.208,0-4,1.792-4,4v75.4c0,2.212,1.792,4,4,4c2.212,0,4-1.788,4-4v-75.4
				C150.856,247.82,149.064,246.028,146.856,246.028z"/>
			<path d="M95.268,261.904c-2.208,0-4,1.788-4,4v39.68c0,2.212,1.792,4,4,4c2.212,0,4-1.788,4-4v-39.68
				C99.268,263.692,97.476,261.904,95.268,261.904z"/>
			<path d="M170.668,214.284c-2.208,0-4,1.792-4,4v107.144c0,2.212,1.792,4,4,4s4-1.788,4-4V218.284
				C174.668,216.076,172.876,214.284,170.668,214.284z"/>
			<path d="M119.08,246.032c-2.208,0-4,1.792-4,4v71.428c0,2.212,1.792,4,4,4s4-1.788,4-4v-71.428
				C123.08,247.824,121.288,246.032,119.08,246.032z"/>
			<path d="M107.176,250c-2.208,0-4,1.792-4,4v63.492c0,2.212,1.792,4,4,4s4-1.788,4-4V254C111.176,251.792,109.384,250,107.176,250
				z"/>
			<path d="M222.252,206.348c-2.208,0-4,1.792-4,4v115.08c0,2.212,1.792,4,4,4c2.212,0,4-1.788,4-4v-115.08
				C226.252,208.14,224.46,206.348,222.252,206.348z"/>
			<path d="M250.032,186.508c-2.208,0-4,1.792-4,4v134.92c0,2.212,1.792,4,4,4c2.208,0,4-1.788,4-4v-134.92
				C254.032,188.3,252.24,186.508,250.032,186.508z"/>
			<path d="M371.26,239.292c-3.88,0-7.684,0.56-11.364,1.66c-5.408-37.276-34.972-64.772-70.652-64.772
				c-8.784,0-17.464,1.764-25.796,5.236c-5.092,2.12-5.516,5.52-5.516,8.54v130.86c0,4.788,2.924,8.44,7.104,8.872
				c2.208,0.184,4.304-1.288,4.532-3.488c0.228-2.196-1.228-4.08-3.424-4.308c-0.052-0.076-0.212-0.428-0.212-1.076V189.952
				c0-0.384,0.008-0.68,0.02-0.888c0.128-0.068,0.312-0.156,0.576-0.268c7.352-3.064,14.996-4.616,22.72-4.616
				c33.12,0,60.324,26.928,63.272,62.636c0.108,1.292,0.836,2.456,1.956,3.116c1.12,0.656,2.488,0.728,3.676,0.196
				c4.164-1.88,8.576-2.832,13.112-2.832c18.932,0,34.332,16.708,34.332,37.244c0,20.52-15.428,37.212-34.392,37.212l-63.368-0.016
				c-2.208,0-4,1.788-4,4c0,2.208,1.792,4,4,4l63.372,0.016c23.376,0,42.388-20.284,42.384-45.216
				C413.592,259.588,394.6,239.292,371.26,239.292z"/>
			<path d="M234.16,194.444c-2.208,0-4,1.792-4,4v126.984c0,2.212,1.792,4,4,4c2.208,0,4-1.788,4-4V198.444
				C238.16,196.236,236.368,194.444,234.16,194.444z"/>
			<path d="M210.348,206.348c-2.208,0-4,1.792-4,4v115.08c0,2.212,1.792,4,4,4c2.212,0,4-1.788,4-4v-115.08
				C214.348,208.14,212.556,206.348,210.348,206.348z"/>
			<path d="M182.572,206.348c-2.208,0-4,1.792-4,4v115.08c0,2.212,1.792,4,4,4s4-1.788,4-4v-115.08
				C186.572,208.14,184.78,206.348,182.572,206.348z"/>
			<path d="M198.444,202.38c-2.208,0-4,1.792-4,4v119.048c0,2.212,1.792,4,4,4c2.212,0,4-1.788,4-4V206.38
				C202.444,204.172,200.652,202.38,198.444,202.38z"/>
		</g>
	</g>
</g>
<g>
</g>
<g>
</g>
<g>
</g>
<g>
</g>
<g>
</g>
<g>
</g>
<g>
</g>
<g>
</g>
<g>
</g>
<g>
</g>
<g>
</g>
<g>
</g>
<g>
</g>
<g>
</g>
<g>
</g>
</svg>
