<?xml version="1.0" encoding="iso-8859-1"?>
<!-- Generator: Adobe Illustrator 19.0.0, SVG Export Plug-In . SVG Version: 6.00 Build 0)  -->
<svg version="1.1" id="Layer_1" xmlns="http://www.w3.org/2000/svg" xmlns:xlink="http://www.w3.org/1999/xlink" x="0px" y="0px"
	 viewBox="0 0 508 508" style="enable-background:new 0 0 508 508;" xml:space="preserve">
<g>
	<g>
		<path d="M412.828,151.796c-1.136-1.368-3.044-1.824-4.676-1.104c-6.372,2.792-12.976,5.036-19.744,6.72
			c7.536-7.46,13.232-16.604,16.536-26.756c0.684-2.1-0.464-4.356-2.564-5.04c-2.104-0.684-4.356,0.468-5.04,2.564
			c-4.448,13.652-13.816,25.244-26.384,32.64c-1.628,0.96-2.364,2.928-1.764,4.72c0.6,1.788,2.38,2.94,4.252,2.7
			c8.448-0.98,16.728-2.748,24.748-5.276c-6.644,7.8-14.236,14.752-22.68,20.756c-1.108,0.784-1.744,2.084-1.68,3.444
			c0.124,2.64,0.152,5.304,0.152,7.972c0,2.208,1.792,4,4,4s4-1.792,4.004-4c0-2.064-0.02-4.12-0.08-6.168
			c12.208-8.976,22.684-19.86,31.16-32.368C414.064,155.124,413.968,153.164,412.828,151.796z"/>
	</g>
</g>
<g>
	<g>
		<path d="M404.6,127.408c-1.116-1.908-3.56-2.544-5.472-1.436c-11.628,6.796-24.172,11.64-37.316,14.412
			c-12.68-12.456-30.056-19.556-48.032-19.556c-37.504,0-68.012,30.064-68.012,67.016c0,3.356,0.252,6.712,0.756,10.036
			c-48.264-3.768-93.2-26.932-123.948-64.068c-0.832-1.004-2.08-1.548-3.396-1.436c-1.296,0.1-2.464,0.828-3.128,1.948
			c-6.036,10.184-9.228,21.844-9.228,33.72c0,17.44,7.032,34.004,19.308,46.444c-4.7-1.248-9.096-3.048-12.94-5.332
			c-1.24-0.736-2.776-0.752-4.024-0.04s-2.02,2.04-2.02,3.476v0.788c0,25.828,14.972,48.884,37.364,59.996
			c-3.668-0.028-7.344-0.38-10.936-1.048c-1.388-0.268-2.816,0.236-3.74,1.296c-0.932,1.064-1.232,2.54-0.796,3.88
			c7.772,23.792,28.156,41.048,52.492,45.428c-24.34,15.756-53.412,22.624-83.3,19.192c-1.868-0.212-3.608,0.888-4.228,2.648
			c-0.616,1.764,0.06,3.716,1.64,4.712c29.992,18.92,64.66,28.92,100.252,28.92c64.052,0,118.452-28.028,153.184-78.916
			c1.244-1.824,0.776-4.316-1.052-5.56c-1.828-1.244-4.312-0.776-5.56,1.052c-33.188,48.636-85.24,75.42-146.572,75.42
			c-28.464,0-56.308-6.676-81.44-19.432c29.528-0.292,57.356-9.884,80.564-27.792c1.344-1.036,1.888-2.808,1.352-4.42
			c-0.532-1.612-2.028-2.712-3.724-2.744c-23.408-0.42-44.204-14.188-53.628-34.884c8.08,0.692,16.476-0.06,24.088-2.096
			c1.796-0.484,3.024-2.14,2.964-3.996c-0.06-1.86-1.396-3.432-3.22-3.792c-25.7-5.092-44.848-26.476-47.416-51.996
			c7.292,3.128,15.64,4.952,24.144,5.22c1.812,0.152,3.4-1.08,3.94-2.788c0.544-1.708-0.116-3.568-1.612-4.552
			c-16.96-11.16-27.084-29.512-27.084-49.084c0-8.532,1.872-16.94,5.456-24.612c33.136,37.484,80.524,60.268,130.948,62.764
			c1.224,0.016,2.46-0.468,3.268-1.432c0.804-0.964,1.112-2.248,0.824-3.472c-1.028-4.408-1.552-8.932-1.552-13.444
			c0-32.54,26.924-59.016,60.012-59.016c16.552,0,32.516,6.804,43.808,18.664c0.936,0.988,2.312,1.42,3.656,1.168
			c14.792-2.864,28.896-8.172,41.92-15.784C405.072,131.764,405.716,129.316,404.6,127.408z"/>
	</g>
</g>
<g>
	<g>
		<path d="M378.764,0H129.18C57.952,0,0,57.964,0,129.212v249.576C0,450.036,57.952,508,129.18,508h249.584
			C450.024,508,508,450.036,508,378.788V129.212C508,57.964,450.024,0,378.764,0z M500,378.788C500,445.624,445.612,500,378.764,500
			H129.18C62.36,500,8,445.624,8,378.788V129.212C8,62.376,62.36,8,129.18,8h249.584C445.616,8,500,62.376,500,129.212V378.788z"/>
	</g>
</g>
<g>
	<g>
		<path d="M480.192,253.968c-2.208,0-4,1.792-4,4v112.02c0,57.568-48.632,106.204-106.2,106.204H138.004
			c-57.564,0-106.196-48.636-106.196-106.204V138c0-57.56,48.632-106.192,106.196-106.192H369.08c2.208,0,4-1.792,4-4s-1.792-4-4-4
			H138.004C76.104,23.808,23.808,76.1,23.808,138v231.988c0,61.904,52.296,114.204,114.196,114.204h231.988
			c61.904,0,114.2-52.3,114.2-114.204v-112.02C484.192,255.76,482.4,253.968,480.192,253.968z"/>
	</g>
</g>
<g>
	<g>
		<path d="M449.808,58.188C428.6,36.98,396.72,23.808,366.6,23.808c-2.208,0-4,1.792-4,4s1.792,4,4,4
			c28.076,0,57.792,12.276,77.552,32.036c0.78,0.78,1.804,1.172,2.828,1.172s2.048-0.392,2.828-1.172
			C451.372,62.28,451.372,59.752,449.808,58.188z"/>
	</g>
</g>
<g>
	<g>
		<path d="M480.192,166.668c-2.208,0-4,1.792-4,4v59.524c0,2.208,1.792,4,4,4s4-1.792,4-4v-59.524
			C484.192,168.46,482.4,166.668,480.192,166.668z"/>
	</g>
</g>
<g>
</g>
<g>
</g>
<g>
</g>
<g>
</g>
<g>
</g>
<g>
</g>
<g>
</g>
<g>
</g>
<g>
</g>
<g>
</g>
<g>
</g>
<g>
</g>
<g>
</g>
<g>
</g>
<g>
</g>
</svg>
