<?xml version="1.0" encoding="iso-8859-1"?>
<!-- Generator: Adobe Illustrator 19.0.0, SVG Export Plug-In . SVG Version: 6.00 Build 0)  -->
<svg version="1.1" id="Layer_1" xmlns="http://www.w3.org/2000/svg" xmlns:xlink="http://www.w3.org/1999/xlink" x="0px" y="0px"
	 viewBox="0 0 508 508" style="enable-background:new 0 0 508 508;" xml:space="preserve">
<g>
	<g>
		<path d="M378.756,0h-249.58C57.948,0,0,57.964,0,129.216v249.572C0,450.036,57.948,508,129.176,508h249.58
			C450.02,508,508,450.036,508,378.792V129.216C508,57.964,450.02,0,378.756,0z M500,378.792
			c0,66.836-54.392,121.212-121.244,121.212h-249.58C62.36,500.004,8,445.628,8,378.792V129.216C8,62.376,62.36,8,129.176,8h249.58
			C445.612,8,500,62.376,500,129.216V378.792z"/>
	</g>
</g>
<g>
	<g>
		<path d="M480.192,253.968c-2.208,0-4,1.792-4,4v112.02c0,57.568-48.632,106.204-106.2,106.204H138.004
			c-57.564,0-106.196-48.636-106.196-106.204v-231.98c0-57.568,48.632-106.2,106.196-106.2H369.08c2.208,0,4-1.792,4-4s-1.792-4-4-4
			H138.004c-61.9,0-114.196,52.296-114.196,114.2v231.98c0,61.908,52.296,114.204,114.196,114.204h231.988
			c61.904,0,114.2-52.296,114.2-114.204v-112.02C484.192,255.76,482.4,253.968,480.192,253.968z"/>
	</g>
</g>
<g>
	<g>
		<path d="M449.808,58.188c-20.884-20.884-53.868-34.38-84.036-34.38c-2.208,0-4,1.792-4,4s1.792,4,4,4
			c28.152,0,58.92,12.576,78.38,32.036c0.78,0.78,1.804,1.172,2.828,1.172s2.048-0.392,2.828-1.172
			C451.372,62.28,451.372,59.752,449.808,58.188z"/>
	</g>
</g>
<g>
	<g>
		<path d="M480.192,166.668c-2.208,0-4,1.792-4,4v59.524c0,2.208,1.792,4,4,4s4-1.792,4-4v-59.524
			C484.192,168.46,482.4,166.668,480.192,166.668z"/>
	</g>
</g>
<g>
	<g>
		<path d="M309.356,249.2c-1.052-1.944-3.476-2.672-5.42-1.62l-78.372,42.34l-0.02-77.96l26.536,14.44
			c1.936,1.052,4.364,0.336,5.424-1.6c1.06-1.94,0.34-4.368-1.6-5.424l-32.452-17.66c-1.24-0.672-2.736-0.648-3.956,0.076
			c-1.212,0.72-1.956,2.028-1.956,3.44l0.024,91.396c0,1.408,0.744,2.712,1.952,3.436c0.632,0.376,1.34,0.564,2.048,0.564
			c0.652,0,1.308-0.16,1.9-0.48l84.272-45.528C309.684,253.568,310.404,251.144,309.356,249.2z"/>
	</g>
</g>
<g>
	<g>
		<path d="M410.096,188.792c-0.112-0.976-2.808-24.008-12.916-34.684c-11.928-12.992-25.076-14.388-32.14-15.14l-1.744-0.188
			c-43.332-3.26-108.764-3.852-109.644-3.856c-0.656,0.004-65.952,0.596-109.412,3.872l-1.236,0.14
			c-6.548,0.728-20.172,2.244-32.256,15.408c-10.14,10.704-12.976,33.584-13.104,34.668c-0.024,0.264-2.408,26.82-2.408,53.016
			v24.676c0,26.224,2.376,52.752,2.404,53.064c0.096,0.972,2.56,23.892,12.68,34.576c10.84,11.828,24.452,13.532,32.584,14.548
			c1.532,0.192,2.884,0.356,4.368,0.628c24.852,2.484,103.068,3.268,106.384,3.3c0.016,0,0.032,0,0.048,0
			c0.656,0,66.128-0.16,109.68-3.416c0.584-0.08,1.236-0.144,1.952-0.22c6.96-0.72,19.908-2.064,31.556-14.792
			c10.132-10.696,13.076-33.568,13.208-34.632c0.024-0.264,2.664-26.808,2.664-53.052v-24.676
			C412.764,215.82,410.128,189.108,410.096,188.792z M404.76,266.708c0,25.828-2.596,51.992-2.612,52.16
			c-0.732,5.872-4.14,22.712-11.116,30.076c-9.64,10.532-20.208,11.628-26.524,12.284c-0.784,0.084-1.504,0.156-1.936,0.22
			c-42.76,3.196-107.368,3.372-108.86,3.376c-1.8-0.02-81.3-0.828-105.268-3.208c-1.268-0.244-2.804-0.444-4.544-0.66
			c-7.496-0.94-18.824-2.356-27.72-12.064c-8.288-8.756-10.556-29.732-10.572-29.892c-0.024-0.26-2.368-26.428-2.368-52.292v-24.676
			c0-25.824,2.348-52.032,2.36-52.184c0.7-5.872,4.036-22.7,11-30.052c10.096-10.996,20.86-12.196,27.292-12.912l1.132-0.132
			c43.012-3.236,108.048-3.828,108.788-3.832c0.652,0.008,65.816,0.596,108.7,3.816l1.68,0.188
			c6.436,0.684,17.208,1.824,27.132,12.64c8.308,8.772,10.796,29.912,10.812,30.072c0.028,0.264,2.624,26.592,2.624,52.396V266.708z
			"/>
	</g>
</g>
<g>
</g>
<g>
</g>
<g>
</g>
<g>
</g>
<g>
</g>
<g>
</g>
<g>
</g>
<g>
</g>
<g>
</g>
<g>
</g>
<g>
</g>
<g>
</g>
<g>
</g>
<g>
</g>
<g>
</g>
</svg>
